PathFileType	4	(X/Y/Z)	static_1_OpenSim.trc.	Data\Walking\Mocap\Sub011\Generated_files\Files_W_HJCs																																																																																																																																																															
DataRate	CameraRate	NumFrames	NumMarkers	Units	OrigDataRate	OrigDataStartFrame	OrigNumFrames																																																																																																																																																												
100	100	7	54	mm	100	1	491																																																																																																																																																												
Frame#	Time	R.ASIS			R.PSIS			S2			L.PSIS			L.ASIS			R.TH1			R.TH2			R.TH3			R.Knee			R.SH1			R.SH2			R.SH3			R.SH4			R.Ankle			R.MAnkle			R.Heel			R.LatHeel			R.PT			R.MT5			R.Toe			R.MT1			R.ProxMet1			R.ST			R.MedHeel			L.TH1			L.TH2			L.TH3			L.TH4			L.Knee			L.SH1			L.SH2			L.SH3			L.Ankle			L.MAnkle			L.Heel			L.LatHeel			L.PT			L.MT5			L.Toe			L.MT1			L.ProxMet1			L.ST			L.MedHeel			T.Med			T.Lat			T.Bot			R.Acr			L.Acr			C7			Clav			R.MKnee			L.MKnee			R_HJC			L_HJC		
		X1	Y1	Z1	X2	Y2	Z2	X3	Y3	Z3	X4	Y4	Z4	X5	Y5	Z5	X6	Y6	Z6	X7	Y7	Z7	X8	Y8	Z8	X9	Y9	Z9	X10	Y10	Z10	X11	Y11	Z11	X12	Y12	Z12	X13	Y13	Z13	X14	Y14	Z14	X15	Y15	Z15	X16	Y16	Z16	X17	Y17	Z17	X18	Y18	Z18	X19	Y19	Z19	X20	Y20	Z20	X21	Y21	Z21	X22	Y22	Z22	X23	Y23	Z23	X24	Y24	Z24	X25	Y25	Z25	X26	Y26	Z26	X27	Y27	Z27	X28	Y28	Z28	X29	Y29	Z29	X30	Y30	Z30	X31	Y31	Z31	X32	Y32	Z32	X33	Y33	Z33	X34	Y34	Z34	X35	Y35	Z35	X36	Y36	Z36	X37	Y37	Z37	X38	Y38	Z38	X39	Y39	Z39	X40	Y40	Z40	X41	Y41	Z41	X42	Y42	Z42	X43	Y43	Z43	X44	Y44	Z44	X45	Y45	Z45	X46	Y46	Z46	X47	Y47	Z47	X48	Y48	Z48	X49	Y49	Z49	X50	Y50	Z50	X51	Y51	Z51	X52	Y52	Z52	X53	Y53	Z53	X54	Y54	Z54
																																																																																																																																																																			
1	0	1236.776	994.688	-428.784	1062.573	1009.765	-497.747	1062.395	992.051	-555.648	1069.177	1007.455	-606.55	1257.194	984.758	-656.629	1261.65	699.62	-416.273	1205.368	700.257	-354.487	1186.824	593.047	-373.18	1149.957	466.397	-386.61	1143.772	354.602	-379.146	1136.83	242.071	-385.936	1061.153	361.538	-377.652	1055.902	247.414	-376.133	1091.002	91.264	-406.667	1105.164	99.021	-480.366	1022.944	66.093	-450.547	1051.12	42.601	-407.028	1122.428	41.58	-390.052	1212.522	35.233	-378.683	1283.654	44.145	-432.411	1230.603	44.39	-474.271	1190.845	63.964	-472.02	1130.725	42.33	-487.716	1059.606	38.938	-485.667	1243.727	721.501	-723.986	1225.104	616.534	-704.661	1164.346	726.276	-755.263	1147.293	620.766	-727.492	1158.497	448.867	-697.022	1170.956	360.768	-694.906	1095.926	373.47	-727.33	1079.241	265.147	-723.46	1098.08	79.509	-690.798	1114.388	101.275	-612.727	1028.909	62.481	-649.567	1055.176	35.706	-691.953	1123.844	37.769	-704.81	1215.882	29.486	-716.018	1291.345	41.102	-657.82	1233.714	41.908	-618.489	1186.286	66.616	-618.823	1138.046	38.405	-606.439	1078.777	40.906	-610.914	1007.859	261.238	-490.428	1004.099	264.459	-452.961	1021.279	231.849	-461.945	1129.901	1394.372	-398.318	1164.808	1385.884	-733.369	1092.328	1423.159	-567.896	1223.416	1348.315	-556.377	1138.163	463.589	-504.954	1143.296	459.116	-593.957	1188.612	854.003	-450.399	1198.921	851.802	-638.622
2	0.01	1236.782	994.68	-428.766	1062.572	1009.828	-497.662	1062.363	992.087	-555.599	1069.117	1007.485	-606.49	1257.147	984.771	-656.574	1261.6	699.635	-416.199	1205.294	700.274	-354.428	1186.768	593.087	-373.086	1149.875	466.461	-386.502	1143.713	354.648	-379.047	1136.815	242.092	-385.889	1061.105	361.534	-377.591	1055.845	247.452	-376.14	1090.976	91.259	-406.583	1105.242	99.011	-480.342	1022.941	66.139	-450.548	1051.154	42.565	-407.045	1122.391	41.592	-390.035	1212.513	35.25	-378.67	1283.606	44.179	-432.361	1230.583	44.487	-474.195	1190.853	64.021	-471.998	1130.706	42.439	-487.709	1059.669	38.915	-485.651	1243.569	721.501	-723.966	1224.913	616.525	-704.656	1164.213	726.275	-755.191	1147.191	620.777	-727.456	1158.275	448.902	-697.002	1170.798	360.872	-694.912	1095.761	373.51	-727.323	1079.107	265.174	-723.482	1098.097	79.502	-690.745	1114.305	101.253	-612.736	1028.905	62.498	-649.511	1055.175	35.731	-691.98	1123.828	37.812	-704.831	1215.83	29.469	-716.013	1291.303	41.196	-657.794	1233.7	41.951	-618.483	1186.25	66.632	-618.867	1138.05	38.423	-606.486	1078.796	40.953	-610.871	1007.761	261.226	-490.363	1004.068	264.47	-452.919	1021.215	231.845	-461.931	1129.986	1394.408	-398.248	1164.82	1386.233	-733.444	1092.407	1423.192	-567.823	1224.076	1348.722	-556.187	1138.084	463.597	-504.919	1143.12	459.175	-593.994	1188.575	854.016	-450.36	1198.845	851.819	-638.585
3	0.02	1236.755	994.643	-428.682	1062.595	1009.876	-497.581	1062.333	992.105	-555.519	1069.055	1007.538	-606.376	1257.086	984.742	-656.538	1261.554	699.533	-416.21	1205.246	700.262	-354.379	1186.709	593.078	-373.026	1149.805	466.514	-386.37	1143.659	354.707	-378.939	1136.785	242.058	-385.843	1061.074	361.512	-377.5	1055.829	247.391	-376.033	1090.991	91.222	-406.534	1105.24	99	-480.316	1022.94	66.127	-450.482	1051.152	42.54	-407.064	1122.378	41.582	-390.018	1212.477	35.215	-378.645	1283.598	44.15	-432.323	1230.552	44.45	-474.251	1190.807	63.962	-471.979	1130.55	42.565	-487.461	1059.635	38.959	-485.669	1243.11	721.375	-723.759	1224.745	616.544	-704.642	1164.076	726.337	-755.197	1147.066	620.815	-727.404	1158.087	448.94	-697.022	1170.644	360.922	-694.959	1095.595	373.516	-727.345	1079.017	265.206	-723.496	1098.043	79.578	-690.83	1114.341	101.286	-612.724	1028.92	62.494	-649.503	1055.206	35.733	-691.992	1123.799	37.83	-704.816	1215.84	29.539	-716.02	1291.316	41.231	-657.8	1233.684	41.936	-618.479	1186.2	66.543	-618.839	1138.051	38.449	-606.489	1078.726	40.956	-610.86	1007.735	261.242	-490.296	1004.048	264.438	-452.856	1021.179	231.817	-461.794	1130.082	1394.42	-398.146	1164.924	1385.988	-733.216	1092.472	1423.214	-567.668	1223.437	1348.221	-556.562	1138.083	463.599	-504.838	1142.972	459.159	-593.977	1188.506	853.998	-450.302	1198.736	851.812	-638.53
4	0.03	1236.752	994.604	-428.656	1062.602	1009.886	-497.479	1062.292	992.144	-555.437	1069.041	1007.57	-606.325	1257.033	984.686	-656.5	1261.517	699.511	-416.169	1205.276	700.379	-354.196	1186.663	593.079	-372.929	1149.79	466.403	-386.328	1143.625	354.59	-378.914	1136.772	242.042	-385.797	1061.048	361.504	-377.368	1055.848	247.389	-375.932	1091.039	91.181	-406.652	1105.257	98.983	-480.294	1022.937	66.105	-450.539	1051.148	42.508	-407.028	1122.392	41.585	-390.029	1212.482	35.181	-378.638	1283.624	44.119	-432.309	1230.583	44.439	-474.264	1190.812	63.967	-471.965	1130.741	42.449	-487.73	1059.574	39.002	-485.647	1243.338	721.507	-723.901	1224.187	616.667	-704.744	1163.964	726.313	-755.172	1146.969	620.81	-727.391	1157.887	448.966	-696.981	1170.477	360.953	-694.963	1095.471	373.502	-727.349	1078.927	265.2	-723.483	1098.078	79.509	-690.706	1114.325	101.285	-612.69	1028.939	62.468	-649.463	1055.155	35.665	-691.985	1123.804	37.786	-704.835	1215.841	29.534	-716.035	1291.308	41.2	-657.801	1233.668	41.919	-618.485	1186.169	66.545	-618.865	1138.047	38.419	-606.48	1078.76	40.871	-610.905	1007.677	261.195	-490.204	1004.024	264.411	-452.798	1021.142	231.743	-461.742	1130.171	1394.459	-398.124	1164.887	1386.253	-733.322	1092.556	1423.208	-567.642	1224.234	1348.8	-556.053	1137.991	463.588	-504.735	1142.835	459.113	-593.941	1188.448	853.973	-450.256	1198.634	851.784	-638.487
5	0.04	1236.756	994.59	-428.615	1062.56	1009.899	-497.416	1062.255	992.192	-555.378	1068.993	1007.627	-606.242	1256.984	984.659	-656.461	1261.446	699.592	-416.073	1205.282	700.392	-354.172	1186.636	593.1	-372.867	1149.741	466.507	-386.227	1143.588	354.542	-378.9	1136.77	242.012	-385.842	1061.051	361.475	-377.334	1055.826	247.337	-375.894	1090.967	91.283	-406.522	1105.223	98.974	-480.281	1022.93	66.086	-450.48	1051.121	42.571	-407.004	1122.393	41.553	-390.011	1212.516	35.188	-378.677	1283.651	44.147	-432.382	1230.579	44.411	-474.272	1190.837	63.973	-471.998	1130.723	42.404	-487.732	1059.57	38.946	-485.585	1243.194	721.45	-723.892	1224.368	616.481	-704.58	1163.848	726.289	-755.103	1146.778	620.811	-727.371	1157.713	448.968	-697.03	1170.325	360.946	-694.967	1095.305	373.478	-727.344	1078.81	265.174	-723.486	1098.089	79.531	-690.79	1114.287	101.245	-612.696	1028.917	62.459	-649.517	1055.172	35.677	-692.014	1123.803	37.778	-704.846	1215.833	29.48	-716.006	1291.298	41.174	-657.842	1233.695	41.898	-618.501	1186.212	66.575	-618.875	1138.038	38.393	-606.454	1078.771	40.869	-610.858	1007.648	261.12	-490.146	1003.975	264.379	-452.723	1020.949	231.442	-462.161	1130.258	1394.5	-398.054	1164.954	1386.194	-733.194	1092.64	1423.209	-567.568	1224.336	1348.835	-555.997	1137.857	463.61	-504.741	1142.311	459.236	-593.857	1188.385	853.966	-450.216	1198.539	851.786	-638.448
6	0.05	1236.766	994.562	-428.564	1062.542	1009.948	-497.338	1062.224	992.22	-555.344	1068.971	1007.669	-606.154	1256.928	984.633	-656.431	1261.391	699.587	-416.049	1205.243	700.366	-354.151	1186.62	593.109	-372.856	1149.703	466.498	-386.191	1143.576	354.53	-378.83	1136.76	242.021	-385.765	1061.021	361.47	-377.246	1055.821	247.356	-375.86	1090.994	91.233	-406.518	1105.234	98.986	-480.276	1022.962	66.062	-450.522	1051.103	42.586	-406.987	1122.434	41.559	-390.031	1212.509	35.162	-378.666	1283.651	44.101	-432.317	1230.592	44.39	-474.265	1190.834	63.949	-471.991	1130.741	42.405	-487.718	1059.564	38.941	-485.605	1243.121	721.475	-723.856	1224.207	616.479	-704.574	1163.742	726.309	-755.13	1146.596	620.82	-727.342	1157.542	448.991	-697.04	1170.212	360.985	-694.997	1095.146	373.493	-727.337	1078.728	265.152	-723.471	1098.063	79.54	-690.824	1114.284	101.281	-612.685	1028.921	62.451	-649.481	1055.178	35.686	-692.007	1123.834	37.751	-704.817	1215.85	29.473	-716.014	1291.331	41.186	-657.827	1233.707	41.887	-618.515	1186.219	66.5	-618.845	1138.079	38.405	-606.482	1078.807	40.886	-610.849	1007.65	261.092	-490.05	1003.952	264.361	-452.661	1020.944	231.454	-462.07	1130.362	1394.554	-397.96	1165.024	1385.897	-733.016	1092.718	1423.188	-567.446	1223.811	1348.446	-556.075	1137.772	463.631	-504.639	1142.223	459.253	-593.771	1188.327	853.957	-450.175	1198.446	851.78	-638.409
7	0.06	1236.779	994.546	-428.534	1062.393	1010.161	-497.202	1062.184	992.27	-555.276	1068.916	1007.72	-606.127	1256.898	984.63	-656.374	1261.336	699.582	-415.948	1205.217	700.328	-354.125	1186.272	593.269	-372.842	1149.655	466.502	-386.149	1143.54	354.554	-378.788	1136.722	242.05	-385.75	1061.013	361.456	-377.197	1055.803	247.35	-375.794	1090.972	91.24	-406.487	1105.181	99.036	-480.24	1022.998	66.097	-450.51	1051.108	42.575	-406.985	1122.461	41.534	-390.023	1212.527	35.138	-378.638	1283.881	44.024	-432.339	1230.624	44.419	-474.243	1190.844	63.94	-471.973	1130.664	42.595	-487.425	1059.578	38.991	-485.589	1243.02	721.445	-723.839	1224.067	616.47	-704.553	1163.61	726.364	-755.053	1146.445	620.865	-727.303	1157.376	449.04	-697.044	1170.086	361.021	-694.988	1095.009	373.524	-727.342	1078.631	265.161	-723.472	1098.073	79.567	-690.836	1114.349	101.296	-612.714	1028.918	62.453	-649.508	1055.162	35.687	-691.929	1123.856	37.776	-704.829	1215.868	29.467	-716.006	1291.345	41.193	-657.805	1233.722	41.904	-618.503	1186.248	66.551	-618.841	1138.097	38.41	-606.495	1078.732	40.903	-610.875	1007.647	261.126	-490.034	1003.932	264.379	-452.652	1021.039	231.093	-462.354	1130.534	1394.522	-397.66	1165.061	1386.223	-733.111	1092.823	1423.231	-567.52	1224.549	1348.877	-555.877	1137.672	463.649	-504.644	1142.12	459.31	-593.808	1188.203	854.003	-450.092	1198.3	851.789	-638.327
